<svg xmlns="http://www.w3.org/2000/svg" xmlns:xlink="http://www.w3.org/1999/xlink" width="500" zoomAndPan="magnify" viewBox="0 0 375 374.999991" height="500" preserveAspectRatio="xMidYMid meet" version="1.0"><defs><clipPath id="27b1670dd8"><path d="M 109 332 L 265 332 L 265 370.644531 L 109 370.644531 Z M 109 332 " clip-rule="nonzero"/></clipPath></defs><g clip-path="url(#27b1670dd8)"><path fill="#f14049" d="M 136.71875 351.363281 C 136.71875 356.742188 159.386719 361.101562 187.34375 361.101562 C 215.308594 361.101562 237.976562 356.742188 237.976562 351.363281 C 237.976562 346.578125 220.046875 342.605469 196.417969 341.78125 L 196.417969 332.277344 C 234.929688 333.394531 264.824219 341.511719 264.824219 351.363281 C 264.824219 361.976562 230.136719 370.585938 187.34375 370.585938 C 144.554688 370.585938 109.867188 361.980469 109.867188 351.363281 C 109.867188 341.511719 139.761719 333.394531 178.273438 332.277344 L 178.273438 341.78125 C 154.644531 342.605469 136.71875 346.578125 136.71875 351.363281 Z M 136.71875 351.363281 " fill-opacity="1" fill-rule="nonzero"/></g><path fill="#f14049" d="M 196.417969 207.582031 L 196.417969 347.261719 C 196.417969 342.25 192.355469 338.191406 187.34375 338.191406 C 182.335938 338.191406 178.273438 342.25 178.273438 347.261719 L 178.273438 207.582031 C 183.949219 210.519531 190.742188 210.519531 196.417969 207.582031 Z M 196.417969 207.582031 " fill-opacity="1" fill-rule="nonzero"/><path fill="#f14049" d="M 47.546875 59.074219 L 262.230469 59.074219 L 232.84375 98.652344 L 107 98.652344 C 104.847656 98.652344 103.765625 101.257812 105.285156 102.78125 L 178.808594 176.601562 C 183.507812 181.363281 191.183594 181.363281 195.882812 176.601562 L 269.40625 102.78125 C 270.925781 101.257812 269.84375 98.652344 267.691406 98.652344 L 243.042969 98.652344 L 272.453125 59.074219 L 327.144531 59.074219 C 338.414062 59.074219 340.339844 65.496094 331.457031 73.335938 L 201.40625 203.914062 C 199.90625 205.433594 198.21875 206.652344 196.417969 207.582031 C 190.746094 210.515625 183.949219 210.515625 178.277344 207.582031 C 176.480469 206.648438 174.789062 205.433594 173.289062 203.914062 L 43.238281 73.335938 C 34.351562 65.496094 36.28125 59.074219 47.546875 59.074219 Z M 47.546875 59.074219 " fill-opacity="1" fill-rule="nonzero"/><path fill="#f14049" d="M 299.121094 14.707031 C 298.191406 14.128906 297.199219 13.699219 296.175781 13.386719 L 301.039062 6.839844 C 302.386719 5.023438 304.953125 4.640625 306.773438 5.988281 C 308.59375 7.339844 308.972656 9.910156 307.625 11.726562 L 302.800781 18.21875 C 301.820312 16.816406 300.59375 15.625 299.121094 14.707031 Z M 299.121094 14.707031 " fill-opacity="1" fill-rule="nonzero"/><path fill="#f14049" d="M 269.789062 48.902344 C 270.878906 51.109375 272.457031 52.953125 274.527344 54.242188 C 274.878906 54.460938 275.246094 54.636719 275.613281 54.816406 L 272.449219 59.074219 L 262.230469 59.074219 Z M 269.789062 48.902344 " fill-opacity="1" fill-rule="nonzero"/><path fill="#f14049" d="M 243.066406 98.652344 L 216.351562 133.6875 C 215.003906 135.457031 212.488281 135.8125 210.703125 134.488281 L 210.644531 134.445312 C 208.824219 133.09375 208.460938 130.519531 209.839844 128.71875 L 232.84375 98.652344 Z M 243.066406 98.652344 " fill-opacity="1" fill-rule="nonzero"/><path fill="#f14049" d="M 269.789062 48.902344 C 266.722656 42.722656 267.546875 33.648438 272.550781 25.601562 C 278.539062 15.972656 288.5 11.050781 296.171875 13.386719 C 297.199219 13.699219 298.191406 14.128906 299.121094 14.707031 C 300.589844 15.625 301.820312 16.816406 302.796875 18.222656 C 307.0625 24.335938 306.617188 34.472656 301.09375 43.351562 C 294.605469 53.78125 283.46875 58.675781 275.613281 54.816406 C 275.246094 54.636719 274.878906 54.460938 274.527344 54.242188 C 272.457031 52.953125 270.882812 51.109375 269.789062 48.902344 Z M 300.3125 32.164062 C 302.878906 31.589844 304.289062 28.125 303.460938 24.421875 C 302.636719 20.71875 299.886719 18.179688 297.320312 18.753906 C 294.753906 19.324219 293.347656 22.789062 294.171875 26.492188 C 295 30.195312 297.746094 32.734375 300.3125 32.164062 Z M 300.3125 32.164062 " fill-opacity="1" fill-rule="nonzero"/><path fill="#f14049" d="M 178.273438 347.261719 C 178.273438 347.855469 178.332031 348.445312 178.449219 349.03125 C 178.566406 349.613281 178.738281 350.179688 178.964844 350.730469 C 179.191406 351.28125 179.472656 351.804688 179.804688 352.300781 C 180.132812 352.792969 180.511719 353.253906 180.929688 353.671875 C 181.351562 354.09375 181.8125 354.46875 182.304688 354.800781 C 182.800781 355.132812 183.324219 355.410156 183.875 355.640625 C 184.425781 355.867188 184.992188 356.039062 185.574219 356.15625 C 186.160156 356.273438 186.75 356.328125 187.34375 356.328125 C 187.941406 356.328125 188.53125 356.273438 189.117188 356.15625 C 189.699219 356.039062 190.265625 355.867188 190.816406 355.640625 C 191.367188 355.410156 191.890625 355.132812 192.386719 354.800781 C 192.878906 354.46875 193.339844 354.09375 193.761719 353.671875 C 194.179688 353.253906 194.558594 352.792969 194.886719 352.300781 C 195.21875 351.804688 195.5 351.28125 195.726562 350.730469 C 195.953125 350.179688 196.125 349.613281 196.242188 349.03125 C 196.359375 348.445312 196.417969 347.855469 196.417969 347.261719 C 196.417969 346.664062 196.359375 346.074219 196.242188 345.492188 C 196.125 344.90625 195.953125 344.339844 195.726562 343.789062 C 195.5 343.238281 195.21875 342.714844 194.886719 342.222656 C 194.558594 341.726562 194.179688 341.269531 193.761719 340.847656 C 193.339844 340.425781 192.878906 340.050781 192.386719 339.71875 C 191.890625 339.386719 191.367188 339.109375 190.816406 338.882812 C 190.265625 338.652344 189.699219 338.480469 189.117188 338.363281 C 188.53125 338.25 187.941406 338.191406 187.34375 338.191406 C 186.75 338.191406 186.160156 338.25 185.574219 338.363281 C 184.992188 338.480469 184.425781 338.652344 183.875 338.882812 C 183.324219 339.109375 182.800781 339.386719 182.304688 339.71875 C 181.8125 340.050781 181.351562 340.425781 180.929688 340.847656 C 180.511719 341.269531 180.132812 341.726562 179.804688 342.222656 C 179.472656 342.714844 179.191406 343.238281 178.964844 343.789062 C 178.738281 344.339844 178.566406 344.90625 178.449219 345.492188 C 178.332031 346.074219 178.273438 346.664062 178.273438 347.261719 Z M 178.273438 347.261719 " fill-opacity="1" fill-rule="nonzero"/></svg>